<?xml version="1.0" standalone="no"?>
<!DOCTYPE svg PUBLIC "-//W3C//DTD SVG 20010904//EN"
 "http://www.w3.org/TR/2001/REC-SVG-20010904/DTD/svg10.dtd">
<svg version="1.0" xmlns="http://www.w3.org/2000/svg"
 width="512.000000pt" height="512.000000pt" viewBox="0 0 512.000000 512.000000"
 preserveAspectRatio="xMidYMid meet">
<metadata>
Created by potrace 1.14, written by Peter Selinger 2001-2017
</metadata>
<g transform="translate(0.000000,512.000000) scale(0.100000,-0.100000)"
fill="#000000" stroke="none">
<path d="M2498 3913 c7 -3 16 -2 19 1 4 3 -2 6 -13 5 -11 0 -14 -3 -6 -6z"/>
<path d="M2335 3893 c-43 -23 -55 -43 -53 -88 l1 -40 4 40 c5 49 17 63 68 86
22 10 33 18 25 18 -8 0 -28 -7 -45 -16z"/>
<path d="M2390 3871 c-77 -27 -89 -46 -85 -126 3 -45 11 -77 26 -101 11 -19
19 -38 15 -41 -3 -4 -6 -4 -6 -1 0 10 -90 -17 -170 -51 -41 -17 -112 -55 -157
-83 -83 -54 -253 -194 -253 -209 0 -26 28 -15 74 30 78 73 207 153 286 176 20
6 14 -4 -32 -55 -32 -34 -72 -91 -90 -126 -18 -34 -34 -61 -35 -60 -8 7 34 87
75 145 l46 65 -70 -39 c-128 -71 -201 -133 -315 -265 -25 -29 -53 -53 -62 -53
-21 0 -100 -123 -124 -193 -9 -27 -18 -44 -20 -37 -2 6 3 28 11 48 22 51 19
58 -5 13 -15 -29 -23 -77 -33 -205 -8 -98 -20 -183 -29 -204 -18 -44 -81 -116
-108 -124 -11 -4 -17 -11 -14 -16 10 -16 56 -10 90 11 27 17 37 34 58 103 15
45 42 107 61 137 40 62 49 60 12 -3 -47 -80 -78 -195 -81 -292 -2 -104 3 -121
51 -181 36 -43 36 -45 24 -91 -6 -27 -21 -59 -33 -72 l-22 -24 33 17 c18 9 41
31 51 47 l19 31 7 -52 c7 -54 39 -120 88 -182 16 -21 25 -38 22 -38 -4 0 -32
14 -62 31 -30 17 -56 30 -58 28 -2 -2 31 -23 72 -46 41 -24 70 -36 63 -28 -18
22 -5 18 40 -10 39 -25 56 -21 24 5 -8 8 -20 23 -25 34 -6 12 5 5 25 -16 20
-21 39 -38 43 -38 3 0 21 -11 39 -25 24 -18 33 -33 32 -50 -1 -14 -4 -25 -6
-25 -2 0 -27 18 -56 41 -47 37 -46 36 13 -20 35 -34 70 -61 78 -61 8 0 23 10
34 23 17 20 25 15 20 -15 -1 -9 63 -11 72 -2 10 10 -105 153 -193 239 -45 44
-88 93 -97 109 -14 27 -14 31 3 43 23 17 45 9 118 -40 86 -58 166 -144 246
-263 38 -58 70 -107 70 -109 0 -2 -28 6 -61 16 -34 11 -64 17 -67 14 -3 -2 1
-6 9 -9 8 -2 41 -11 74 -21 33 -9 73 -21 90 -26 18 -5 33 -5 39 1 12 12 15 8
-56 53 -39 25 -69 55 -99 99 -64 96 -140 179 -218 238 -39 30 -71 58 -71 63 0
5 7 4 15 -3 10 -9 15 -9 15 -1 0 6 9 11 21 11 11 0 18 4 15 8 -3 5 -19 7 -36
4 -29 -4 -30 -3 -30 39 l0 43 34 -40 c18 -21 33 -42 32 -46 -2 -10 46 -59 69
-69 11 -6 4 4 -15 21 -35 31 -22 44 16 15 30 -23 50 -18 21 5 -33 26 -93 151
-102 210 -6 45 -6 45 11 20 26 -38 87 -100 98 -100 6 0 -6 14 -26 30 -20 17
-50 58 -67 92 -27 54 -31 71 -31 147 0 116 20 185 81 283 60 96 78 120 90 112
5 -3 6 1 4 8 -3 8 6 25 20 38 30 28 30 28 6 -38 -23 -62 -15 -67 19 -12 13 22
31 40 40 40 24 0 109 56 164 108 l49 47 -23 -40 c-40 -68 -94 -135 -125 -155
-16 -11 -24 -20 -17 -20 43 0 171 123 222 214 18 31 33 56 34 56 6 0 -42 -167
-58 -204 -9 -22 -29 -56 -44 -75 l-27 -36 32 23 c17 12 44 37 59 55 30 36 84
143 84 168 0 9 3 19 7 23 4 4 13 -21 19 -56 12 -61 60 -186 69 -177 2 3 -2 26
-10 52 -19 62 -30 178 -16 157 6 -8 11 -25 11 -36 0 -48 95 -267 166 -385 19
-32 35 -71 35 -90 1 -19 3 -26 6 -16 13 51 48 -10 39 -69 -5 -38 -3 -44 12
-44 10 0 24 6 32 12 11 10 11 9 0 -6 -14 -18 -13 -19 4 -13 16 6 17 5 6 -8 -7
-9 -21 -13 -31 -10 -11 4 -19 2 -19 -5 0 -20 29 -67 45 -73 13 -6 13 -3 -1 19
-16 23 -15 26 1 44 17 19 19 19 31 3 7 -10 10 -22 7 -26 -3 -5 5 -3 18 3 20
11 25 10 41 -10 24 -29 11 -44 -36 -44 -19 0 -32 -4 -30 -8 8 -13 42 -9 73 7
26 13 30 13 42 -1 10 -13 10 -17 -2 -26 -11 -8 -11 -9 3 -5 9 3 23 -2 31 -11
22 -25 53 -92 60 -129 6 -29 1 -36 -49 -82 -31 -28 -52 -51 -47 -51 5 0 25 16
44 36 77 82 179 122 179 72 0 -27 -14 -48 -91 -144 -65 -79 -170 -235 -196
-289 -18 -37 -17 -37 6 -56 23 -19 24 -19 55 0 64 41 229 167 246 188 10 13
41 40 69 61 60 45 118 123 127 169 9 47 24 41 24 -9 0 -81 -30 -148 -66 -148
-12 0 -10 8 6 40 27 54 18 51 -14 -5 -15 -24 -34 -49 -44 -55 -14 -9 -13 -10
8 -4 58 15 88 34 128 79 56 64 94 131 101 179 12 88 4 229 -16 286 -38 102
-37 98 -18 75 8 -11 26 -54 39 -95 23 -71 25 -73 33 -45 4 17 8 73 8 127 0 53
4 94 9 91 13 -9 36 -70 36 -100 0 -22 3 -24 13 -15 20 21 16 199 -5 241 -10
19 -18 35 -18 35 0 1 17 0 38 -2 39 -4 101 29 110 58 3 10 -3 8 -19 -7 -58
-52 -153 -23 -196 61 -19 36 -44 128 -38 135 3 2 10 -10 16 -28 6 -18 13 -30
15 -28 3 2 -1 17 -7 33 -15 39 -49 167 -45 172 2 1 24 -29 49 -69 48 -74 64
-132 54 -194 -5 -33 6 -52 43 -69 8 -4 5 0 -7 9 -19 14 -21 23 -16 64 8 70
-18 145 -87 250 -33 50 -60 93 -60 95 0 2 17 -5 37 -15 58 -30 142 -19 179 22
18 20 17 20 -20 -2 -28 -16 -55 -23 -92 -23 -76 0 -122 34 -170 125 -22 42
-65 99 -103 138 -68 69 -184 155 -195 144 -3 -4 -6 -1 -6 5 0 15 -76 63 -103
65 -11 1 -44 26 -71 56 -90 98 -166 170 -213 203 -25 17 -43 26 -39 20 5 -8 2
-10 -8 -6 -9 3 -14 10 -11 14 3 5 0 12 -6 16 -8 4 -9 3 -5 -4 10 -16 5 -15
-56 9 -77 30 -170 34 -238 10z m307 -66 c79 -36 155 -95 203 -159 22 -29 40
-56 40 -59 0 -3 -21 3 -46 14 -71 32 -231 69 -293 69 -31 -1 -74 -8 -96 -16
-22 -8 -48 -16 -58 -17 -10 -1 -22 -8 -26 -16 -10 -15 -15 -3 -26 60 -23 130
142 198 302 124z m158 -215 c81 -21 125 -42 125 -61 0 -8 -4 -8 -12 -1 -15 11
-131 52 -150 52 -7 0 4 -17 24 -37 38 -41 88 -112 88 -127 0 -5 -22 21 -50 57
-27 36 -71 82 -96 102 -56 42 -44 44 71 15z m185 -75 c10 0 130 -75 130 -81 0
-3 -30 11 -67 31 l-66 38 25 -34 c42 -57 106 -171 133 -237 33 -82 36 -163 6
-203 -12 -16 -17 -30 -11 -34 13 -8 13 -25 0 -25 -5 0 -10 6 -10 14 0 11 -10
14 -37 10 -38 -4 -38 -4 -7 6 122 39 90 198 -98 485 -32 50 -47 77 -32 60 15
-16 30 -30 34 -30z m70 -11 c0 -2 -9 0 -20 6 -11 6 -20 13 -20 16 0 2 9 0 20
-6 11 -6 20 -13 20 -16z m-661 -76 c8 -13 22 -48 32 -78 16 -49 18 -51 13 -15
-3 22 -8 48 -11 58 -2 9 0 17 5 17 11 0 57 -102 67 -147 10 -51 -1 -39 -20 20
-24 71 -31 75 -27 14 2 -29 -1 -63 -7 -77 -9 -24 -10 -23 -10 11 -1 42 -34
156 -53 182 -12 16 -17 15 -73 -11 -70 -34 -138 -83 -214 -156 -37 -35 -48
-42 -35 -22 29 45 163 153 238 191 38 19 72 35 75 35 3 0 13 -10 20 -22z
m-285 -73 c-21 -19 -42 -34 -46 -35 -7 0 -110 -117 -141 -160 l-17 -25 14 30
c21 43 117 153 168 192 57 43 72 42 22 -2z m651 -1 c-32 -47 -40 -88 -40 -206
0 -58 -4 -93 -9 -88 -13 13 -12 179 2 227 7 23 24 56 38 73 35 41 39 38 9 -6z
m-861 -188 c-3 -15 -8 -25 -11 -23 -2 3 -1 17 3 31 3 15 8 25 11 23 2 -3 1
-17 -3 -31z m-214 -48 l-11 -23 20 24 c30 33 26 22 -13 -43 -44 -74 -76 -194
-85 -325 l-8 -106 -1 95 c-2 115 18 214 57 295 17 33 26 62 21 65 -6 3 -3 16
6 29 20 28 30 21 14 -11z m203 -13 c-7 -21 -13 -19 -13 6 0 11 4 18 10 14 5
-3 7 -12 3 -20z m1531 -24 c-6 -6 -24 19 -24 34 1 6 7 1 15 -9 8 -11 12 -22 9
-25z m-1584 -18 c0 -23 -36 -83 -50 -83 -16 0 -11 30 11 66 23 37 39 44 39 17z
m1478 -20 c25 -37 33 -61 22 -68 -10 -6 -60 62 -60 82 0 21 18 15 38 -14z m87
-131 c19 -87 19 -183 0 -255 -16 -60 -58 -151 -75 -162 -5 -3 1 16 15 43 61
122 71 261 30 447 -5 25 -4 27 5 12 6 -9 18 -47 25 -85z m-1533 66 c-7 -7 -12
-8 -12 -2 0 14 12 26 19 19 2 -3 -1 -11 -7 -17z m339 -30 c-41 -55 -120 -122
-130 -112 -6 5 154 164 165 164 2 0 -13 -24 -35 -52z m816 -30 c67 -69 118
-154 148 -250 27 -86 44 -231 28 -241 -7 -4 -11 18 -12 58 -3 152 -110 383
-219 476 -20 17 -28 26 -17 21 11 -6 43 -34 72 -64z m-1012 18 c-17 -36 -35
-48 -35 -22 0 16 40 69 47 62 3 -2 -3 -20 -12 -40z m855 -31 c-1 -18 -3 -17
-25 8 -14 15 -25 38 -25 50 1 21 2 20 25 -8 14 -16 25 -39 25 -50z m-296 29
c3 -9 6 -28 6 -42 -1 -26 -1 -26 -15 -8 -16 22 -20 66 -6 66 5 0 12 -7 15 -16z
m226 -15 c0 -6 -4 -7 -10 -4 -5 3 -10 11 -10 16 0 6 5 7 10 4 6 -3 10 -11 10
-16z m-1010 -217 c29 -68 50 -125 47 -129 -3 -3 -34 4 -69 15 -35 11 -78 24
-96 27 -18 4 -36 13 -39 21 -7 20 85 210 97 198 5 -5 32 -64 60 -132z m1006
-202 c16 -25 59 -88 95 -140 37 -52 72 -106 79 -120 11 -22 8 -21 -23 9 -19
18 -33 39 -31 46 3 6 -2 18 -11 25 -12 10 -15 10 -15 -1 0 -8 -11 -1 -24 16
-15 19 -20 32 -13 37 6 4 -5 27 -28 60 -46 63 -61 81 -46 51 15 -30 14 -38 -5
-22 -8 7 -13 21 -10 32 6 26 -3 47 -18 41 -15 -6 -43 54 -51 111 -6 39 -5 38
33 -30 21 -38 52 -90 68 -115z m258 -6 c30 -75 56 -187 56 -244 0 -48 -29
-192 -41 -205 -10 -10 -5 30 12 95 23 89 0 256 -51 375 -22 52 -24 59 -11 51
5 -3 21 -36 35 -72z m-1364 -2 c-15 -63 -52 -123 -94 -155 -48 -37 -53 -34
-11 8 39 39 88 130 100 185 5 19 10 29 13 22 2 -7 -1 -34 -8 -60z m1128 -64
c7 -7 12 -19 12 -27 0 -11 -4 -10 -20 4 -21 19 -26 35 -12 35 4 0 13 -5 20
-12z m-23 -58 c3 -5 2 -10 -4 -10 -5 0 -13 5 -16 10 -3 6 -2 10 4 10 5 0 13
-4 16 -10z m225 -744 c0 -2 -8 -10 -17 -17 -16 -13 -17 -12 -4 4 13 16 21 21
21 13z"/>
<path d="M2653 3683 c9 -2 25 -2 35 0 9 3 1 5 -18 5 -19 0 -27 -2 -17 -5z"/>
<path d="M2750 3664 c25 -7 50 -13 55 -13 18 1 -59 27 -80 28 -11 0 0 -7 25
-15z"/>
<path d="M2464 3654 c-18 -14 -18 -15 4 -4 12 6 22 13 22 15 0 8 -5 6 -26 -11z"/>
<path d="M2880 3626 c0 -2 7 -7 16 -10 8 -3 12 -2 9 4 -6 10 -25 14 -25 6z"/>
<path d="M1736 2729 c-20 -45 -34 -84 -32 -86 3 -3 40 -15 84 -27 l78 -23 -44
106 c-25 58 -46 107 -47 109 -1 1 -19 -34 -39 -79z"/>
<path d="M2760 2607 c0 -14 31 -69 36 -64 3 3 -4 20 -15 38 -12 19 -21 30 -21
26z"/>
<path d="M2910 2366 c0 -2 8 -10 18 -17 15 -13 16 -12 3 4 -13 16 -21 21 -21
13z"/>
<path d="M2220 3600 c-18 -12 -2 -12 25 0 13 6 15 9 5 9 -8 0 -22 -4 -30 -9z"/>
<path d="M2057 3525 c-42 -25 -77 -48 -77 -51 0 -3 19 6 43 20 23 14 62 36 87
50 25 14 40 26 35 26 -6 0 -45 -20 -88 -45z"/>
<path d="M1939 3449 l-24 -20 28 17 c15 9 27 18 27 20 0 8 -8 4 -31 -17z"/>
<path d="M1840 3374 c-36 -30 -76 -59 -89 -65 -43 -18 -135 -84 -199 -144
-111 -103 -204 -257 -217 -357 -5 -43 -5 -43 10 9 47 166 167 320 343 442 39
27 54 20 25 -12 -25 -28 -71 -97 -51 -77 8 8 40 48 72 88 32 39 61 72 65 72 7
1 117 100 110 100 -3 0 -34 -25 -69 -56z m-90 -84 c0 -5 -5 -10 -11 -10 -5 0
-7 5 -4 10 3 6 8 10 11 10 2 0 4 -4 4 -10z"/>
<path d="M1577 3053 c-32 -51 -49 -83 -43 -83 2 0 13 15 24 33 11 19 27 46 37
60 9 15 15 27 11 27 -3 0 -16 -17 -29 -37z"/>
<path d="M2096 2734 c-37 -12 -67 -33 -118 -84 -79 -79 -93 -119 -16 -47 104
97 200 128 298 93 24 -8 46 -13 48 -11 2 2 -14 15 -35 29 -50 33 -114 40 -177
20z"/>
<path d="M1331 2694 c-1 -38 40 -123 76 -155 l27 -24 -25 35 c-36 48 -58 92
-68 137 -9 37 -9 37 -10 7z"/>
<path d="M2310 2616 c0 -2 8 -10 18 -17 15 -13 16 -12 3 4 -13 16 -21 21 -21
13z"/>
<path d="M2090 2549 c-13 -6 -40 -22 -60 -37 -19 -15 -42 -26 -50 -24 -11 2
-11 0 -3 -5 15 -11 -35 -93 -57 -93 -9 0 -11 -3 -4 -8 5 -4 14 -22 20 -41 5
-18 19 -40 31 -48 21 -14 21 -14 11 21 -30 96 96 227 204 213 46 -6 93 -39
114 -79 12 -24 18 -28 25 -17 19 31 -22 91 -80 115 -38 16 -114 17 -151 3z"/>
<path d="M2120 2472 c-41 -20 -80 -88 -80 -139 0 -27 4 -32 19 -30 10 2 26 9
35 17 30 24 39 -4 11 -30 -21 -19 -25 -21 -19 -6 6 16 5 17 -15 5 -11 -8 -21
-17 -21 -20 0 -18 45 -59 81 -73 39 -16 42 -16 82 6 22 13 43 30 45 38 4 11
-1 10 -17 -4 -12 -11 -22 -14 -22 -8 -2 16 -4 23 -13 51 -12 34 7 48 38 27 35
-22 36 -21 36 27 -1 64 -32 125 -74 142 -44 19 -44 19 -86 -3z m8 -44 c17 -17
15 -24 -10 -48 -28 -26 -34 -25 -42 6 -11 42 24 70 52 42z m62 -68 c14 -26 -4
-63 -28 -58 -18 3 -28 39 -18 64 8 20 34 17 46 -6z m-50 -79 c0 -15 32 -22 45
-11 9 8 14 6 19 -5 3 -8 0 -15 -6 -15 -7 0 -6 -5 2 -15 16 -20 4 -35 -28 -35
-54 0 -91 47 -60 78 14 14 28 16 28 3z"/>
<path d="M2095 2310 c-3 -6 1 -7 9 -4 18 7 21 14 7 14 -6 0 -13 -4 -16 -10z"/>
<path d="M2530 2241 c0 -12 6 -21 16 -21 9 0 14 7 12 17 -5 25 -28 28 -28 4z"/>
<path d="M2542 2170 c0 -14 2 -19 5 -12 2 6 2 18 0 25 -3 6 -5 1 -5 -13z"/>
<path d="M1909 2162 c5 -10 18 -25 27 -33 11 -9 9 -2 -6 19 -26 35 -36 42 -21
14z"/>
<path d="M2075 2170 c-3 -5 -1 -10 4 -10 6 0 11 5 11 10 0 6 -2 10 -4 10 -3 0
-8 -4 -11 -10z"/>
<path d="M2170 2161 c-33 -4 -40 -8 -27 -13 27 -11 41 -10 63 7 10 8 17 14 14
13 -3 0 -25 -4 -50 -7z"/>
<path d="M2877 2158 c2 -5 19 -8 38 -8 19 0 36 3 38 8 3 4 -14 7 -38 7 -24 0
-41 -3 -38 -7z"/>
<path d="M1840 2050 c0 -14 7 -20 22 -20 20 0 21 1 3 20 -10 11 -20 20 -22 20
-1 0 -3 -9 -3 -20z"/>
<path d="M2628 2023 c7 -3 16 -2 19 1 4 3 -2 6 -13 5 -11 0 -14 -3 -6 -6z"/>
<path d="M2680 2001 c-24 -14 -149 -20 -225 -11 -57 6 -75 5 -100 -9 -35 -20
-54 -76 -53 -161 0 -30 3 -45 5 -32 3 13 19 32 36 42 28 17 44 19 147 14 68
-4 130 -2 151 4 29 8 45 6 75 -8 45 -20 60 -35 67 -70 3 -14 4 18 3 70 -3 106
-13 133 -56 155 -33 17 -30 17 -50 6z m40 -97 c0 -2 -9 0 -20 6 -11 6 -20 13
-20 16 0 2 9 0 20 -6 11 -6 20 -13 20 -16z m35 -24 c10 -11 16 -20 13 -20 -3
0 -13 9 -23 20 -10 11 -16 20 -13 20 3 0 13 -9 23 -20z"/>
<path d="M1455 1789 c4 -6 39 -31 79 -56 79 -51 176 -123 218 -161 27 -25 27
-27 12 -51 -9 -14 -25 -34 -36 -43 -11 -10 -16 -18 -10 -18 11 0 56 50 65 72
4 9 14 3 31 -17 l26 -30 0 35 c0 40 7 52 35 68 15 9 16 11 4 12 -22 0 -49 -32
-49 -59 0 -20 -7 -16 -58 29 -60 53 -329 239 -317 219z"/>
<path d="M2909 1763 c-13 -16 -12 -17 4 -4 9 7 17 15 17 17 0 8 -8 3 -21 -13z"/>
<path d="M2315 1727 c13 -62 112 -167 157 -167 7 0 -2 8 -20 18 -50 27 -93 72
-119 127 -15 31 -22 39 -18 22z"/>
<path d="M3509 1727 c-14 -12 -35 -28 -45 -35 -11 -7 -7 -6 11 2 17 8 39 23
49 35 25 27 18 26 -15 -2z"/>
<path d="M2762 1702 c-14 -48 -65 -102 -123 -131 -24 -12 -33 -19 -19 -15 66
16 139 90 155 157 11 41 0 32 -13 -11z"/>
<path d="M1970 1726 c0 -2 8 -10 18 -17 15 -13 16 -12 3 4 -13 16 -21 21 -21
13z"/>
<path d="M1826 1695 c9 -14 26 -31 38 -37 14 -7 10 1 -13 26 -41 42 -48 45
-25 11z"/>
<path d="M2010 1696 c0 -2 8 -10 18 -17 15 -13 16 -12 3 4 -13 16 -21 21 -21
13z"/>
<path d="M2807 1604 c-32 -46 -50 -60 -125 -96 -110 -54 -147 -55 -259 -6 -46
20 -79 31 -76 24 4 -6 15 -31 23 -56 11 -31 28 -54 59 -78 40 -30 45 -31 61
-17 12 11 39 15 98 15 l82 0 29 58 c16 31 43 71 61 87 33 31 95 114 88 120 -1
1 -20 -21 -41 -51z m-387 -122 c3 -3 -3 -2 -12 1 -9 3 -18 1 -21 -6 -2 -6 -6
-2 -9 11 -5 19 -4 21 15 10 12 -6 24 -13 27 -16z m276 -14 c-13 -18 -16 -19
-16 -5 0 20 -7 21 -40 2 -14 -8 -29 -14 -35 -14 -5 0 7 9 28 20 21 11 42 17
47 14 5 -3 12 0 15 6 4 5 9 8 12 5 3 -2 -2 -15 -11 -28z m-236 2 c8 -5 11 -10
5 -10 -5 0 -17 5 -25 10 -8 5 -10 10 -5 10 6 0 17 -5 25 -10z m-40 -45 l25
-30 -27 24 c-16 14 -28 29 -28 34 0 6 1 8 3 6 1 -2 13 -17 27 -34z m169 19 c9
-8 -75 -2 -94 6 -12 5 1 6 35 3 30 -3 57 -7 59 -9z m81 -24 c-10 -18 -20 -20
-93 -18 l-82 2 80 3 c57 3 82 8 88 18 12 23 19 18 7 -5z m-189 -33 c-8 -8 -14
-7 -23 2 -11 10 -9 11 6 5 15 -6 17 -4 11 6 -6 9 -4 11 4 5 9 -5 10 -10 2 -18z"/>
<path d="M3358 1639 c-21 -11 -38 -22 -38 -24 0 -3 18 4 40 15 22 11 40 23 40
25 0 7 0 7 -42 -16z"/>
<path d="M1747 1609 c7 -7 15 -10 18 -7 3 3 -2 9 -12 12 -14 6 -15 5 -6 -5z"/>
<path d="M3228 1566 c-46 -31 -69 -42 -79 -35 -21 13 -80 10 -114 -7 -16 -8
-21 -11 -10 -8 11 4 41 9 67 11 45 5 48 4 68 -28 19 -31 20 -32 15 -7 -8 33
15 48 65 41 33 -4 34 -3 16 11 -11 9 -18 17 -15 19 2 2 20 13 39 25 19 12 30
22 24 22 -7 0 -41 -20 -76 -44z"/>
<path d="M2317 1559 c7 -7 15 -10 18 -7 3 3 -2 9 -12 12 -14 6 -15 5 -6 -5z"/>
<path d="M1500 1499 c-17 -5 -6 -7 35 -8 33 -1 71 -4 85 -8 14 -3 22 -3 18 1
-10 12 -111 23 -138 15z"/>
<path d="M3266 1475 c21 -19 43 -34 47 -35 5 0 -10 16 -33 35 -54 45 -65 46
-14 0z"/>
<path d="M2895 1489 c-11 -6 -36 -21 -55 -34 -19 -12 -48 -30 -65 -41 -16 -10
-34 -17 -40 -16 -5 2 -4 -2 3 -10 10 -10 14 -10 21 0 10 16 116 81 161 97 23
9 28 14 15 14 -11 0 -29 -5 -40 -10z"/>
<path d="M1434 1458 c-31 -34 -67 -81 -47 -63 21 20 85 95 81 95 -2 0 -18 -15
-34 -32z"/>
<path d="M2735 1479 c-4 -6 -5 -12 -2 -15 2 -3 7 2 10 11 7 17 1 20 -8 4z"/>
<path d="M2020 1459 c0 -12 -8 -27 -17 -34 -16 -12 -14 -12 10 -8 22 4 27 11
27 34 0 16 -4 29 -10 29 -5 0 -10 -10 -10 -21z"/>
<path d="M2095 1466 c65 -20 136 -20 161 -1 17 13 16 14 -14 4 -31 -11 -51
-10 -157 6 -36 5 -36 4 10 -9z"/>
<path d="M1929 1458 c-10 -7 -5 -8 16 -4 28 6 29 5 11 -9 -28 -21 -6 -18 28 4
l28 19 -34 0 c-19 0 -41 -4 -49 -10z"/>
<path d="M2185 1440 l-70 -6 78 -4 c42 -3 77 -2 77 2 0 12 -13 13 -85 8z"/>
<path d="M3368 1443 c6 -2 18 -2 25 0 6 3 1 5 -13 5 -14 0 -19 -2 -12 -5z"/>
<path d="M3428 1443 c7 -3 16 -2 19 1 4 3 -2 6 -13 5 -11 0 -14 -3 -6 -6z"/>
<path d="M2063 1433 c9 -2 23 -2 30 0 6 3 -1 5 -18 5 -16 0 -22 -2 -12 -5z"/>
<path d="M3480 1433 c28 -11 52 -38 80 -93 23 -46 38 -61 89 -90 64 -37 69
-43 81 -102 8 -42 5 -45 -21 -22 -16 14 -22 14 -72 0 -29 -8 -123 -51 -208
-95 -85 -44 -185 -91 -221 -106 -71 -28 -77 -42 -29 -63 16 -7 51 -32 78 -54
28 -25 37 -30 23 -14 -14 16 -47 43 -74 62 l-49 33 44 17 c24 10 121 57 214
104 94 48 194 95 223 105 l54 17 39 -38 c60 -58 87 -125 125 -313 10 -47 12
-14 2 39 -17 98 -47 186 -79 229 -20 29 -32 59 -35 89 -6 62 -23 85 -86 119
-41 22 -60 40 -84 83 -40 69 -68 100 -91 99 -14 0 -15 -2 -3 -6z"/>
<path d="M1664 1413 c51 -62 179 -190 223 -224 36 -28 54 -50 59 -72 4 -18 9
-26 11 -19 3 7 -12 49 -33 93 -21 45 -40 76 -42 70 -2 -6 6 -27 17 -47 l22
-36 -40 31 c-22 17 -80 74 -129 126 -50 52 -93 95 -96 95 -3 0 0 -8 8 -17z"/>
<path d="M1871 1410 c14 -31 19 -36 19 -24 0 6 -7 19 -16 30 -14 18 -14 18 -3
-6z"/>
<path d="M3050 1380 c-8 -5 -27 -10 -41 -10 -34 0 -156 -37 -164 -50 -3 -5 27
2 67 16 51 18 85 24 113 20 22 -3 33 -2 25 2 -9 4 4 11 35 18 47 11 48 12 15
13 -19 0 -42 -4 -50 -9z"/>
<path d="M3143 1378 c-15 -20 -25 -38 -20 -38 3 0 12 11 21 25 17 26 16 35 -1
13z"/>
<path d="M3245 1343 c-27 -25 -41 -40 -30 -35 30 16 91 69 85 75 -3 3 -27 -15
-55 -40z"/>
<path d="M2296 1362 c-5 -9 60 -132 71 -132 2 0 -1 9 -7 20 -6 11 -8 20 -4 20
4 0 0 8 -9 18 -9 10 -22 33 -30 51 -8 18 -17 29 -21 23z"/>
<path d="M2242 1340 c-21 -9 -22 -14 -16 -67 7 -67 28 -152 51 -206 26 -60 25
-37 -2 39 l-25 69 33 28 32 29 -31 -21 -32 -21 -6 23 c-3 12 -6 43 -6 68 0 38
4 48 23 57 27 13 11 14 -21 2z"/>
<path d="M2755 1321 c-3 -11 -25 -35 -48 -52 -48 -37 -69 -56 -49 -45 7 4 21
2 30 -6 15 -11 15 -11 5 3 -11 13 -8 19 17 38 33 24 66 68 57 77 -3 3 -8 -4
-12 -15z"/>
<path d="M2050 1309 c-36 -10 -51 -17 -33 -16 28 3 34 -1 43 -26 5 -16 8 -48
5 -71 -5 -38 -4 -39 5 -11 6 17 8 51 4 77 l-6 47 44 5 c85 11 92 13 48 14 -25
0 -74 -8 -110 -19z"/>
<path d="M3010 1320 c-18 -12 -2 -12 25 0 13 6 15 9 5 9 -8 0 -22 -4 -30 -9z"/>
<path d="M3120 1320 c8 -5 20 -10 25 -10 6 0 3 5 -5 10 -8 5 -19 10 -25 10 -5
0 -3 -5 5 -10z"/>
<path d="M1298 1278 c-53 -65 -68 -101 -68 -163 0 -43 -6 -64 -25 -94 -38 -57
-89 -184 -125 -312 -39 -138 -57 -174 -118 -242 -83 -91 -92 -109 -90 -169 1
-45 2 -47 5 -13 6 71 12 83 79 157 82 92 93 114 138 273 52 190 126 332 216
419 80 78 81 78 154 -6 98 -112 116 -145 121 -233 6 -84 22 -172 24 -125 0 14
-4 58 -9 99 -6 41 -8 76 -6 78 2 2 29 -37 61 -87 31 -50 56 -92 54 -94 -2 -1
-28 -17 -56 -35 -58 -36 -95 -76 -119 -125 -8 -17 -9 -22 -2 -12 40 61 111
122 218 186 82 49 120 78 129 97 10 26 10 27 -4 9 -8 -11 -16 -18 -18 -15 -2
2 -29 45 -60 94 l-56 90 -151 78 c-191 98 -197 98 -284 13 l-66 -64 0 46 c0
49 17 84 72 155 16 20 28 37 25 37 -3 0 -20 -19 -39 -42z"/>
<path d="M2793 1313 c9 -2 23 -2 30 0 6 3 -1 5 -18 5 -16 0 -22 -2 -12 -5z"/>
<path d="M1830 1296 c0 -2 8 -10 18 -17 15 -13 16 -12 3 4 -13 16 -21 21 -21
13z"/>
<path d="M3500 1290 c-9 -6 -10 -10 -3 -10 6 0 15 5 18 10 8 12 4 12 -15 0z"/>
<path d="M2870 1225 c13 -14 33 -24 44 -24 19 2 19 2 -2 6 -12 3 -28 13 -35
24 -6 10 -16 19 -21 19 -5 0 1 -11 14 -25z"/>
<path d="M2528 1233 c12 -2 30 -2 40 0 9 3 -1 5 -23 4 -22 0 -30 -2 -17 -4z"/>
<path d="M2476 1214 c-4 -10 -4 -42 0 -71 8 -65 -14 -133 -51 -157 -14 -9 -32
-30 -40 -46 -9 -18 -24 -30 -35 -30 -10 0 -21 -4 -24 -9 -3 -4 6 -6 20 -3 14
2 37 20 51 39 24 32 27 33 44 17 11 -10 19 -21 19 -26 0 -6 10 -18 22 -28 19
-15 20 -20 9 -34 -8 -9 -12 -19 -9 -21 3 -3 17 12 31 32 15 21 42 50 61 65
l34 27 45 -40 c25 -22 49 -39 54 -38 4 1 16 -1 26 -6 33 -14 213 1 254 22 21
10 38 23 38 30 0 15 56 103 66 103 4 0 11 -9 14 -21 4 -11 9 -18 12 -16 2 3
-1 16 -8 29 -7 12 -12 28 -10 33 4 14 -5 4 -43 -49 -18 -26 -48 -58 -66 -71
-36 -26 -34 -33 3 -14 17 9 20 9 10 -1 -16 -17 -126 -39 -196 -40 -44 0 -65 5
-87 22 -16 12 -32 19 -35 16 -7 -6 -40 19 -100 77 -35 33 -44 50 -54 100 -6
33 -20 75 -30 94 -15 29 -19 31 -25 15z m29 -74 c-3 -6 -2 -10 3 -10 5 0 12
-18 15 -40 3 -23 18 -56 36 -78 l30 -39 -42 -41 -42 -42 -26 33 c-40 51 -41
55 -19 86 23 30 44 148 28 157 -4 3 -8 13 -8 22 1 11 6 8 16 -11 8 -15 12 -32
9 -37z m200 -230 c3 -6 -1 -7 -9 -4 -18 7 -21 14 -7 14 6 0 13 -4 16 -10z"/>
<path d="M2624 1188 l-19 -23 23 19 c21 18 27 26 19 26 -2 0 -12 -10 -23 -22z"/>
<path d="M3050 1206 c0 -12 32 -76 41 -81 6 -4 1 11 -10 34 -23 44 -20 48 19
26 38 -22 49 -18 12 5 -29 18 -62 26 -62 16z"/>
<path d="M1640 1197 c0 -3 12 -12 26 -22 15 -9 23 -12 20 -6 -7 11 -46 35 -46
28z"/>
<path d="M2794 1178 l-19 -23 23 19 c21 18 27 26 19 26 -2 0 -12 -10 -23 -22z"/>
<path d="M2881 1180 c14 -31 19 -36 19 -24 0 6 -7 19 -16 30 -14 18 -14 18 -3
-6z"/>
<path d="M3213 1178 c-17 -6 -51 -31 -75 -57 -43 -46 -43 -46 -3 -9 22 20 63
46 90 57 52 21 44 27 -12 9z"/>
<path d="M2210 1145 c19 -19 36 -35 39 -35 3 0 -10 16 -29 35 -19 19 -36 35
-39 35 -3 0 10 -16 29 -35z"/>
<path d="M2900 1135 c0 -5 5 -17 10 -25 5 -8 10 -10 10 -5 0 6 -5 17 -10 25
-5 8 -10 11 -10 5z"/>
<path d="M2743 1095 c0 -22 2 -30 4 -17 2 12 2 30 0 40 -3 9 -5 -1 -4 -23z"/>
<path d="M1760 1116 c0 -2 36 -30 81 -62 101 -71 94 -92 -12 -38 -40 20 -68
30 -62 22 7 -7 39 -27 72 -43 55 -26 60 -31 55 -54 -4 -20 -1 -17 11 9 16 35
53 80 65 80 3 0 14 -16 23 -35 32 -67 170 -137 235 -119 15 4 35 8 44 9 10 1
21 5 25 10 5 4 -3 4 -17 0 -38 -11 -19 3 26 19 32 12 35 15 14 15 -14 1 -38
-8 -55 -19 -36 -24 -98 -26 -148 -5 -43 18 -116 92 -139 143 -16 33 -18 34
-18 12 0 -14 -9 -31 -20 -38 -19 -11 -30 -7 -100 43 -44 31 -80 54 -80 51z"/>
<path d="M3265 1040 c-3 -6 1 -7 9 -4 18 7 21 14 7 14 -6 0 -13 -4 -16 -10z"/>
<path d="M3205 1010 c-3 -6 1 -7 9 -4 18 7 21 14 7 14 -6 0 -13 -4 -16 -10z"/>
<path d="M1855 960 c10 -11 20 -20 23 -20 3 0 -3 9 -13 20 -10 11 -20 20 -23
20 -3 0 3 -9 13 -20z"/>
<path d="M3040 955 c-7 -9 -8 -15 -2 -15 5 0 12 7 16 15 3 8 4 15 2 15 -2 0
-9 -7 -16 -15z"/>
<path d="M2592 920 c0 -14 3 -36 7 -50 6 -18 2 -32 -13 -50 l-21 -25 22 18
c21 18 21 18 28 -3 4 -12 5 -23 3 -26 -2 -2 -37 -7 -77 -10 -39 -4 -68 -10
-64 -14 4 -4 40 -4 78 0 39 5 72 6 74 5 4 -5 -39 -116 -51 -129 -4 -5 -33 -15
-65 -22 -32 -6 -65 -15 -74 -18 -13 -6 -18 5 -27 63 -11 67 -11 72 18 143 16
40 30 75 30 78 -1 11 -41 -69 -65 -131 -27 -70 -50 -89 -136 -109 l-34 -8 33
-1 c36 -1 84 20 118 51 l22 20 4 -54 c3 -29 4 -87 4 -129 l-1 -76 40 18 c22
10 48 19 58 19 11 0 32 8 48 17 25 15 29 24 29 60 0 40 33 147 51 167 6 6 24
-3 46 -25 l38 -34 -33 35 c-29 32 -57 108 -85 225 -4 16 -5 15 -5 -5z"/>
<path d="M3195 890 c-3 -6 1 -7 9 -4 18 7 21 14 7 14 -6 0 -13 -4 -16 -10z"/>
<path d="M3452 854 c-5 -22 -17 -84 -27 -139 -9 -55 -19 -107 -21 -115 -7 -26
53 -115 137 -204 44 -47 86 -86 92 -86 6 0 -12 24 -41 53 -29 29 -50 55 -48
58 7 6 42 233 50 316 3 36 2 65 -4 68 -6 4 -10 -11 -10 -37 0 -48 -38 -316
-47 -331 -7 -12 -50 30 -84 82 -36 55 -36 79 -4 240 14 69 23 127 20 129 -2 2
-8 -13 -13 -34z"/>
<path d="M3559 833 c-13 -16 -12 -17 4 -4 9 7 17 15 17 17 0 8 -8 3 -21 -13z"/>
<path d="M3117 804 c-15 -18 -51 -47 -80 -63 -29 -17 -47 -31 -42 -31 34 0
162 97 154 117 -2 5 -17 -6 -32 -23z"/>
<path d="M2660 780 c12 -16 24 -30 26 -30 3 0 -4 14 -16 30 -12 17 -24 30 -26
30 -3 0 4 -13 16 -30z"/>
<path d="M1860 794 c0 -5 9 -23 20 -41 36 -59 138 -103 300 -128 80 -13 37 4
-63 24 -114 23 -189 61 -229 115 -15 21 -28 35 -28 30z"/>
<path d="M2518 743 c6 -2 18 -2 25 0 6 3 1 5 -13 5 -14 0 -19 -2 -12 -5z"/>
<path d="M1205 718 c19 -63 84 -215 133 -312 53 -105 54 -109 36 -123 -13 -9
-31 -12 -54 -8 -19 4 -93 13 -165 20 -108 10 -132 10 -145 -1 -12 -12 -1 -14
71 -14 108 0 239 -11 239 -20 0 -3 -41 -19 -91 -35 -50 -16 -93 -34 -96 -39
-4 -6 1 -6 13 -2 10 4 64 24 119 43 55 19 107 42 116 51 17 17 141 292 132
292 -2 0 -30 -55 -62 -122 l-58 -123 -43 85 c-48 96 -130 295 -130 316 0 8 -5
14 -11 14 -6 0 -8 -9 -4 -22z"/>
<path d="M2705 720 c10 -11 20 -20 23 -20 3 0 -3 9 -13 20 -10 11 -20 20 -23
20 -3 0 3 -9 13 -20z"/>
<path d="M3866 688 c9 -57 14 -61 14 -10 0 22 -5 44 -10 47 -7 4 -8 -8 -4 -37z"/>
<path d="M2350 705 c-7 -9 -8 -15 -2 -15 5 0 12 7 16 15 3 8 4 15 2 15 -2 0
-9 -7 -16 -15z"/>
<path d="M2900 689 c-25 -5 -72 -7 -105 -4 -49 4 -55 3 -35 -6 31 -13 167 -6
183 10 6 6 9 11 7 10 -3 -1 -25 -5 -50 -10z"/>
<path d="M2753 653 c9 -2 23 -2 30 0 6 3 -1 5 -18 5 -16 0 -22 -2 -12 -5z"/>
<path d="M2336 635 c-11 -8 -15 -15 -9 -15 6 0 16 7 23 15 16 19 11 19 -14 0z"/>
<path d="M2258 613 c12 -2 30 -2 40 0 9 3 -1 5 -23 4 -22 0 -30 -2 -17 -4z"/>
<path d="M3870 609 c0 -5 5 -7 10 -4 6 3 10 8 10 11 0 2 -4 4 -10 4 -5 0 -10
-5 -10 -11z"/>
<path d="M3881 553 c-1 -17 4 -35 9 -38 12 -7 12 22 0 50 -7 17 -9 15 -9 -12z"/>
<path d="M2572 470 c0 -19 4 -48 8 -65 7 -29 8 -28 8 10 0 22 -4 51 -8 65 -7
23 -8 22 -8 -10z"/>
<path d="M3893 486 c4 -10 7 -22 7 -27 0 -5 4 -9 9 -9 12 0 2 38 -12 47 -7 4
-8 0 -4 -11z"/>
<path d="M1720 453 c-12 -16 -24 -27 -26 -25 -2 1 -4 0 -4 -3 0 -14 18 -3 39
24 13 17 21 31 18 31 -3 0 -15 -12 -27 -27z"/>
<path d="M3920 418 c0 -9 7 -22 17 -29 15 -13 15 -12 3 11 -17 34 -20 36 -20
18z"/>
<path d="M2391 410 c-1 -8 -35 -82 -76 -165 -52 -105 -75 -164 -78 -198 l-5
-47 90 0 c69 0 87 3 82 13 -5 6 -32 49 -60 93 l-53 82 43 74 c53 93 70 133 63
150 -4 10 -6 9 -6 -2z"/>
<path d="M2562 385 c0 -16 2 -22 5 -12 2 9 2 23 0 30 -3 6 -5 -1 -5 -18z"/>
<path d="M2592 330 c0 -25 4 -72 8 -105 l7 -60 1 50 c0 28 -3 75 -8 105 l-7
55 -1 -45z"/>
<path d="M4006 299 c27 -36 51 -64 53 -63 7 6 -38 69 -69 99 -25 23 -22 16 16
-36z"/>
<path d="M2391 334 c0 -11 3 -14 6 -6 3 7 2 16 -1 19 -3 4 -6 -2 -5 -13z"/>
<path d="M2554 335 c-3 -8 -4 -20 -2 -27 3 -7 7 -1 10 15 6 29 1 36 -8 12z"/>
<path d="M3650 296 c0 -2 8 -10 18 -17 15 -13 16 -12 3 4 -13 16 -21 21 -21
13z"/>
<path d="M3825 279 c-49 -11 -100 -21 -113 -22 -21 -2 -19 -5 19 -41 58 -55
71 -80 85 -155 l12 -66 1 49 c1 62 -29 127 -76 163 -43 33 -39 35 97 63 58 12
107 23 109 26 9 9 -48 2 -134 -17z"/>
<path d="M2531 229 c-7 -33 -10 -63 -8 -65 2 -3 10 23 16 57 7 33 10 63 8 65
-2 3 -10 -23 -16 -57z"/>
<path d="M1430 265 c-19 -7 -28 -14 -20 -14 8 0 29 6 45 14 39 17 21 18 -25 0z"/>
<path d="M2391 274 c-2 -20 30 -179 38 -187 4 -4 -1 32 -11 80 -21 104 -25
122 -27 107z"/>
<path d="M1365 240 c-3 -6 1 -7 9 -4 18 7 21 14 7 14 -6 0 -13 -4 -16 -10z"/>
<path d="M881 229 c-1 -8 6 -37 15 -63 16 -47 16 -50 -6 -103 -12 -30 -20 -56
-18 -59 7 -7 48 91 47 113 0 25 -37 132 -38 112z"/>
<path d="M4063 170 c0 -30 2 -43 4 -28 2 16 2 40 0 56 -2 15 -4 2 -4 -28z"/>
<path d="M2616 95 c3 -38 10 -77 15 -85 7 -13 8 -13 8 0 0 8 -7 47 -14 85
l-14 70 5 -70z"/>
<path d="M2511 134 c0 -11 3 -14 6 -6 3 7 2 16 -1 19 -3 4 -6 -2 -5 -13z"/>
<path d="M1020 101 c-5 -11 -9 -39 -9 -63 l1 -43 8 49 c5 26 11 54 14 62 8 21
-2 17 -14 -5z"/>
<path d="M2109 13 c-13 -16 -12 -17 4 -4 16 13 21 21 13 21 -2 0 -10 -8 -17
-17z"/>
</g>
</svg>
